<?xml version="1.0" encoding="UTF-8" standalone="no"?>
<svg
   class="svg-icon"
   style="width: 1em;height: 1em;vertical-align: middle;fill: currentColor;overflow: hidden;"
   viewBox="0 0 1024 1024"
   version="1.1"
   id="svg44"
   sodipodi:docname="pixel_-potion_healing.svg"
   inkscape:version="1.3 (0e150ed, 2023-07-21)"
   xmlns:inkscape="http://www.inkscape.org/namespaces/inkscape"
   xmlns:sodipodi="http://sodipodi.sourceforge.net/DTD/sodipodi-0.dtd"
   xmlns="http://www.w3.org/2000/svg"
   xmlns:svg="http://www.w3.org/2000/svg">
  <defs
     id="defs44" />
  <sodipodi:namedview
     id="namedview44"
     pagecolor="#ffffff"
     bordercolor="#000000"
     borderopacity="0.25"
     inkscape:showpageshadow="2"
     inkscape:pageopacity="0.0"
     inkscape:pagecheckerboard="0"
     inkscape:deskcolor="#d1d1d1"
     showgrid="false"
     inkscape:zoom="0.56990944"
     inkscape:cx="464.10882"
     inkscape:cy="607.114"
     inkscape:window-width="1440"
     inkscape:window-height="787"
     inkscape:window-x="0"
     inkscape:window-y="25"
     inkscape:window-maximized="0"
     inkscape:current-layer="svg44" />
  <path
     d="M787.692308 866.461538h78.76923v78.769231h-78.76923zM787.692308 787.692308h78.76923v78.76923h-78.76923zM787.692308 708.923077h78.76923v78.769231h-78.76923zM787.692308 630.153846h78.76923v78.769231h-78.76923zM787.692308 551.384615h78.76923v78.769231h-78.76923zM787.692308 472.615385h78.76923v78.76923h-78.76923zM787.692308 393.846154h78.76923v78.769231h-78.76923zM708.923077 945.230769h78.769231v78.769231h-78.769231z"
     fill="#1E2028"
     id="path1" />
  <path
     d="M708.923077 866.461538h78.769231v78.769231h-78.769231zM708.923077 787.692308h78.769231v78.76923h-78.769231zM708.923077 708.923077h78.769231v78.769231h-78.769231zM708.923077 630.153846h78.769231v78.769231h-78.769231z"
     fill="#AF1441"
     id="path2"
     style="fill:#17af14;fill-opacity:1" />
  <path
     d="M708.923077 551.384615h78.769231v78.769231h-78.769231z"
     fill="#FF1A51"
     id="path3"
     style="fill:#1eff1a;fill-opacity:1" />
  <path
     d="M708.923077 472.615385h78.769231v78.76923h-78.769231zM708.923077 393.846154h78.769231v78.769231h-78.769231z"
     fill="#D6D6D6"
     id="path4" />
  <path
     d="M708.923077 315.076923h78.769231v78.769231h-78.769231zM708.923077 157.538462h78.769231v78.76923h-78.769231zM708.923077 78.769231h78.769231v78.769231h-78.769231zM630.153846 945.230769h78.769231v78.769231h-78.769231z"
     fill="#1E2028"
     id="path5" />
  <path
     d="m 627.81975,866.46154 h 81.10333 v 78.76923 h -81.10333 z"
     fill="#af1441"
     id="path6"
     style="fill:#17af14;fill-opacity:1;stroke-width:1.01471" />
  <path
     d="M630.153846 787.692308h78.769231v78.76923h-78.769231zM630.153846 708.923077h78.769231v78.769231h-78.769231zM630.153846 630.153846h78.769231v78.769231h-78.769231zM630.153846 551.384615h78.769231v78.769231h-78.769231z"
     fill="#FF1A51"
     id="path7"
     style="fill:#1eff1a;fill-opacity:1" />
  <path
     d="M630.153846 472.615385h78.769231v78.76923h-78.769231zM630.153846 393.846154h78.769231v78.769231h-78.769231z"
     fill="#FFFFFF"
     id="path8" />
  <path
     d="M630.153846 315.076923h78.769231v78.769231h-78.769231z"
     fill="#D6D6D6"
     id="path9" />
  <path
     d="M630.153846 236.307692h78.769231v78.769231h-78.769231zM630.153846 157.538462h78.769231v78.76923h-78.769231z"
     fill="#1E2028"
     id="path10" />
  <path
     d="M630.153846 78.769231h78.769231v78.769231h-78.769231z"
     fill="#FF9343"
     id="path11" />
  <path
     d="M630.153846 0h78.769231v78.769231h-78.769231zM551.384615 945.230769h78.769231v78.769231h-78.769231z"
     fill="#1E2028"
     id="path12" />
  <path
     d="M551.384615 866.461538h78.769231v78.769231h-78.769231z"
     fill="#AF1441"
     id="path13"
     style="fill:#17af14;fill-opacity:1" />
  <path
     d="M551.384615 787.692308h78.769231v78.76923h-78.769231zM551.384615 708.923077h78.769231v78.769231h-78.769231zM551.384615 630.153846h78.769231v78.769231h-78.769231zM551.384615 551.384615h78.769231v78.769231h-78.769231z"
     fill="#FF1A51"
     id="path14"
     style="fill:#1eff1a;fill-opacity:1" />
  <path
     d="M551.384615 472.615385h78.769231v78.76923h-78.769231zM551.384615 393.846154h78.769231v78.769231h-78.769231zM551.384615 315.076923h78.769231v78.769231h-78.769231z"
     fill="#FFFFFF"
     id="path15" />
  <path
     d="M551.384615 236.307692h78.769231v78.769231h-78.769231z"
     fill="#FF9343"
     id="path16" />
  <path
     d="M551.384615 157.538462h78.769231v78.76923h-78.769231z"
     fill="#1E2028"
     id="path17" />
  <path
     d="M551.384615 78.769231h78.769231v78.769231h-78.769231z"
     fill="#FFDD4D"
     id="path18" />
  <path
     d="M551.384615 0h78.769231v78.769231h-78.769231zM472.615385 945.230769h78.76923v78.769231h-78.76923z"
     fill="#1E2028"
     id="path19" />
  <path
     d="M472.615385 866.461538h78.76923v78.769231h-78.76923z"
     fill="#AF1441"
     id="path20"
     style="fill:#17af14;fill-opacity:1" />
  <path
     d="M472.615385 787.692308h78.76923v78.76923h-78.76923zM472.615385 708.923077h78.76923v78.769231h-78.76923zM472.615385 630.153846h78.76923v78.769231h-78.76923zM472.615385 551.384615h78.76923v78.769231h-78.76923z"
     fill="#FF1A51"
     id="path21"
     style="fill:#1eff1a;fill-opacity:1" />
  <path
     d="M472.615385 472.615385h78.76923v78.76923h-78.76923zM472.615385 393.846154h78.76923v78.769231h-78.76923zM472.615385 315.076923h78.76923v78.769231h-78.76923z"
     fill="#FFFFFF"
     id="path22" />
  <path
     d="M472.615385 236.307692h78.76923v78.769231h-78.76923z"
     fill="#FF9343"
     id="path23" />
  <path
     d="M472.615385 157.538462h78.76923v78.76923h-78.76923z"
     fill="#1E2028"
     id="path24" />
  <path
     d="M472.615385 78.769231h78.76923v78.769231h-78.76923z"
     fill="#FFDD4D"
     id="path25" />
  <path
     d="M472.615385 0h78.76923v78.769231h-78.76923zM393.846154 945.230769h78.769231v78.769231h-78.769231z"
     fill="#1E2028"
     id="path26" />
  <path
     d="M393.846154 866.461538h78.769231v78.769231h-78.769231z"
     fill="#AF1441"
     id="path27"
     style="fill:#17af14;fill-opacity:1" />
  <path
     d="M393.846154 787.692308h78.769231v78.76923h-78.769231zM393.846154 708.923077h78.769231v78.769231h-78.769231zM393.846154 630.153846h78.769231v78.769231h-78.769231zM393.846154 551.384615h78.769231v78.769231h-78.769231z"
     fill="#FF1A51"
     id="path28"
     style="fill:#1eff1a;fill-opacity:1" />
  <path
     d="M393.846154 472.615385h78.769231v78.76923h-78.769231zM393.846154 393.846154h78.769231v78.769231h-78.769231zM393.846154 315.076923h78.769231v78.769231h-78.769231z"
     fill="#FFFFFF"
     id="path29" />
  <path
     d="M393.846154 236.307692h78.769231v78.769231h-78.769231z"
     fill="#FF9343"
     id="path30" />
  <path
     d="M393.846154 157.538462h78.769231v78.76923h-78.769231z"
     fill="#1E2028"
     id="path31" />
  <path
     d="M393.846154 78.769231h78.769231v78.769231h-78.769231z"
     fill="#FFDD4D"
     id="path32" />
  <path
     d="M393.846154 0h78.769231v78.769231h-78.769231zM315.076923 945.230769h78.769231v78.769231h-78.769231z"
     fill="#1E2028"
     id="path33" />
  <path
     d="M315.076923 866.461538h78.769231v78.769231h-78.769231z"
     fill="#F4608A"
     id="path34"
     style="fill:#7bf460;fill-opacity:1" />
  <path
     d="M315.076923 787.692308h78.769231v78.76923h-78.769231z"
     fill="#FF1A51"
     id="path35"
     style="fill:#1eff1a;fill-opacity:1" />
  <path
     d="M315.076923 708.923077h78.769231v78.769231h-78.769231zM315.076923 630.153846h78.769231v78.769231h-78.769231z"
     fill="#FFFFFF"
     id="path36" />
  <path
     d="M315.076923 551.384615h78.769231v78.769231h-78.769231z"
     fill="#FF1A51"
     id="path37"
     style="fill:#1eff1a;fill-opacity:1" />
  <path
     d="M315.076923 472.615385h78.769231v78.76923h-78.769231zM315.076923 393.846154h78.769231v78.769231h-78.769231zM315.076923 315.076923h78.769231v78.769231h-78.769231z"
     fill="#FFFFFF"
     id="path38" />
  <path
     d="M315.076923 236.307692h78.769231v78.769231h-78.769231zM315.076923 157.538462h78.769231v78.76923h-78.769231z"
     fill="#1E2028"
     id="path39" />
  <path
     d="M315.076923 78.769231h78.769231v78.769231h-78.769231z"
     fill="#FFF1B6"
     id="path40" />
  <path
     d="M315.076923 0h78.769231v78.769231h-78.769231zM236.307692 945.230769h78.769231v78.769231h-78.769231z"
     fill="#1E2028"
     id="path41" />
  <path
     d="M236.307692 866.461538h78.769231v78.769231h-78.769231zM236.307692 787.692308h78.769231v78.76923h-78.769231zM236.307692 708.923077h78.769231v78.769231h-78.769231zM236.307692 630.153846h78.769231v78.769231h-78.769231zM236.307692 551.384615h78.769231v78.769231h-78.769231z"
     fill="#F4608A"
     id="path42"
     style="fill:#8df361;fill-opacity:1" />
  <path
     d="M236.307692 472.615385h78.769231v78.76923h-78.769231zM236.307692 393.846154h78.769231v78.769231h-78.769231z"
     fill="#FFFFFF"
     id="path43" />
  <path
     d="M236.307692 315.076923h78.769231v78.769231h-78.769231zM236.307692 157.538462h78.769231v78.76923h-78.769231zM236.307692 78.769231h78.769231v78.769231h-78.769231zM157.538462 866.461538h78.76923v78.769231H157.538462zM157.538462 787.692308h78.76923v78.76923H157.538462zM157.538462 708.923077h78.76923v78.769231H157.538462zM157.538462 630.153846h78.76923v78.769231H157.538462zM157.538462 551.384615h78.76923v78.769231H157.538462zM157.538462 472.615385h78.76923v78.76923H157.538462zM157.538462 393.846154h78.76923v78.769231H157.538462z"
     fill="#1E2028"
     id="path44" />
</svg>
